<mxfile host="app.diagrams.net" modified="2024-01-25T00:13:37.428Z" agent="Mozilla/5.0 (Windows NT 10.0; Win64; x64) AppleWebKit/537.36 (KHTML, like Gecko) Chrome/120.0.0.0 Safari/537.36" version="23.0.1" etag="i0a7Y2I_t2Z2i65M9AQF" type="github">
  <diagram name="페이지-1" id="uDPpIItaGWpJBIF4k5EH">
    <mxGraphModel>
      <root>
        <mxCell id="0" />
        <mxCell id="1" parent="0" />
      </root>
    </mxGraphModel>
  </diagram>
</mxfile>
